<?xml version="1.0" standalone="no"?>
<!DOCTYPE svg PUBLIC "-//W3C//DTD SVG 20010904//EN"
 "http://www.w3.org/TR/2001/REC-SVG-20010904/DTD/svg10.dtd">
<svg version="1.0" xmlns="http://www.w3.org/2000/svg"
 width="966.000000pt" height="966.000000pt" viewBox="0 0 966.000000 966.000000"
 preserveAspectRatio="xMidYMid meet">

<g transform="translate(0.000000,966.000000) scale(0.100000,-0.100000)"
fill="#000000" stroke="none">
<path d="M4495 9649 c-1954 -138 -3637 -1446 -4249 -3302 -573 -1737 -122
-3639 1170 -4931 1292 -1292 3194 -1743 4931 -1170 2193 723 3565 2903 3273
5201 -234 1834 -1514 3387 -3273 3967 -593 196 -1240 278 -1852 235z m-1175
-2129 l0 -70 -65 0 -65 0 0 70 0 70 65 0 65 0 0 -70z m400 -175 l0 -75 -80 0
-80 0 0 75 0 75 80 0 80 0 0 -75z m370 0 l0 -75 -80 0 -80 0 0 75 0 75 80 0
80 0 0 -75z m620 5 l0 -70 -134 0 c-73 0 -148 3 -165 6 -31 6 -31 7 -31 70 l0
64 165 0 165 0 0 -70z m956 55 c76 -22 129 -67 163 -138 l30 -62 3 -1411 2
-1411 -28 -57 c-31 -63 -100 -125 -163 -148 -31 -10 -236 -13 -1073 -13
l-1035 0 -53 24 c-59 27 -105 74 -136 140 -20 43 -21 62 -21 323 l0 278 66 0
c37 0 81 -3 98 -6 l31 -6 0 -164 0 -164 -31 0 -31 0 4 -98 c4 -110 16 -139 71
-172 31 -19 59 -20 1046 -20 1012 0 1014 0 1048 21 18 12 43 39 53 60 20 38
20 60 18 1423 -3 1381 -3 1385 -24 1412 -11 15 -33 37 -48 48 -26 20 -40 21
-339 21 l-312 0 -3 68 -3 67 309 0 c242 0 319 -3 358 -15z m869 -29 c64 -29
119 -85 153 -156 l27 -55 3 -308 3 -307 -27 -60 c-32 -72 -81 -118 -157 -150
l-57 -24 0 -127 0 -127 52 -18 c70 -25 120 -76 160 -160 l33 -69 3 -290 c2
-159 0 -309 -3 -332 -3 -23 -23 -68 -45 -102 -40 -62 -92 -104 -157 -126 l-38
-13 -6 -269 c-3 -147 -10 -282 -16 -298 -50 -148 -139 -211 -312 -222 l-98 -6
2 49 c2 27 4 59 4 71 1 22 5 23 85 22 89 -1 124 10 163 53 43 46 48 84 45 404
l-2 180 -54 23 c-67 27 -138 97 -174 171 l-27 55 -3 298 c-3 248 -1 306 12
350 29 94 111 180 203 212 l38 13 3 131 c2 114 1 131 -13 131 -33 0 -128 56
-162 95 -20 22 -45 60 -57 85 -20 43 -21 60 -21 335 0 342 5 371 87 460 100
109 226 138 353 81z m-3185 -381 l0 -75 -80 0 -80 0 0 75 0 75 80 0 80 0 0
-75z m1565 -50 c196 -41 349 -188 399 -381 65 -253 -72 -491 -346 -602 l-27
-11 2 -125 2 -125 -30 -3 -30 -3 0 -70 0 -70 31 -5 31 -5 -1 -80 -1 -80 -30
-5 c-30 -5 -30 -5 -30 -75 l0 -70 153 -3 152 -3 0 -74 0 -75 -95 0 -95 0 0
-85 0 -85 95 0 95 0 0 -75 0 -74 -147 -3 -146 -3 -12 -35 c-13 -40 -65 -80
-102 -80 -39 0 -93 30 -108 61 -13 24 -15 124 -15 644 0 513 -2 615 -14 615
-7 0 -45 16 -84 36 -196 98 -310 316 -274 527 27 155 131 297 272 371 118 62
227 78 355 51z m-1185 -205 l0 -170 -85 0 -85 0 0 170 0 170 85 0 85 0 0 -170z
m490 65 l0 -105 -144 0 -143 0 -2 105 -1 105 145 0 145 0 0 -105z m-1190 -155
l0 -90 -79 0 -80 0 2 90 1 90 78 0 78 0 0 -90z m520 -195 l0 -115 -105 0 -105
0 0 113 0 114 105 1 105 1 0 -114z m533 -142 l-1 -88 -76 -3 -76 -3 0 91 0 90
78 0 77 0 -2 -87z m-893 -198 l0 -85 -80 0 -80 0 0 80 0 79 78 4 c42 1 78 4
80 5 1 1 2 -36 2 -83z m540 0 l0 -85 -85 0 -85 0 0 85 0 85 85 0 85 0 0 -85z
m490 -185 l0 -90 -140 0 -140 0 0 90 0 90 140 0 140 0 0 -90z m-672 -264 l2
-189 -92 6 c-51 4 -96 7 -100 7 -5 0 -8 82 -8 183 l0 182 98 0 97 -1 3 -188z
m672 -111 l0 -85 -65 0 -65 0 0 85 0 85 65 0 65 0 0 -85z m-1038 -8 l-3 -84
-75 0 -74 0 0 84 0 83 78 0 77 0 -3 -83z m738 -162 l0 -85 -80 0 -80 0 0 85 0
85 80 0 80 0 0 -85z m-370 -190 l0 -85 -100 0 -100 0 0 85 0 85 100 0 100 0 0
-85z m670 -185 l0 -80 -140 0 -140 0 0 80 0 80 140 0 140 0 0 -80z m237 -1405
c69 -31 108 -84 123 -173 18 -97 9 -415 -13 -463 -25 -57 -62 -95 -114 -117
-97 -41 -283 -36 -365 10 -72 41 -118 138 -118 250 l0 58 -75 0 -75 0 0 -170
0 -170 -70 0 -70 0 0 395 0 395 70 0 70 0 0 -160 0 -160 74 0 73 0 6 73 c8
116 64 206 146 239 80 32 258 28 338 -7z m-2248 -142 l-1 -158 25 0 c20 0 48
30 146 153 68 84 128 155 135 158 7 3 48 4 91 2 l79 -3 -144 -175 c-78 -96
-147 -180 -152 -187 -7 -8 33 -66 127 -186 76 -96 146 -189 157 -206 l20 -31
-84 0 -84 0 -105 138 c-58 75 -115 152 -128 170 -17 24 -30 32 -52 32 l-29 0
0 -170 0 -170 -70 0 -70 0 0 395 0 395 70 0 71 0 -2 -157z m1261 -238 l0 -395
-70 0 -70 0 0 330 0 330 -114 0 -114 0 -6 -47 c-3 -27 -15 -142 -26 -257 -12
-115 -27 -223 -34 -240 -25 -59 -86 -96 -178 -109 -42 -6 -48 4 -48 86 0 44 2
47 26 47 39 0 61 16 73 52 5 18 22 160 37 316 l28 282 248 0 248 0 0 -395z
m1440 226 c0 -224 -7 -215 169 -219 l131 -4 0 196 0 196 70 0 70 0 0 -395 0
-395 -70 0 -70 0 0 134 0 134 -158 4 c-154 3 -160 4 -201 31 -72 48 -81 80
-81 300 l0 187 70 0 70 0 0 -169z m790 4 l0 -165 160 0 160 0 0 165 0 165 70
0 70 0 0 -395 0 -395 -70 0 -70 0 0 165 0 165 -160 0 -160 0 0 -165 0 -165
-70 0 -70 0 0 395 0 395 70 0 70 0 0 -165z m812 -111 l3 -276 155 276 155 275
73 1 72 0 0 -395 0 -395 -67 0 -68 0 2 275 c1 151 -1 275 -5 275 -4 -1 -50
-76 -102 -168 -52 -92 -123 -215 -158 -274 l-63 -108 -70 0 -69 0 0 395 0 395
70 0 70 0 2 -276z m808 116 l0 -160 24 0 c18 0 50 34 150 160 l127 160 85 0
c78 0 84 -1 75 -17 -5 -10 -72 -94 -149 -188 -117 -143 -138 -173 -128 -186 6
-10 73 -96 149 -193 75 -97 137 -180 137 -185 0 -5 6 -12 13 -14 6 -3 -28 -6
-77 -6 -65 -1 -92 3 -100 13 -6 8 -65 84 -130 170 -104 137 -123 156 -148 156
l-28 0 0 -170 0 -170 -70 0 -70 0 0 395 0 395 70 0 70 0 0 -160z"/>
<path d="M6353 7269 c-40 -12 -106 -86 -121 -137 -8 -26 -12 -128 -12 -296 0
-237 2 -260 20 -296 18 -34 81 -90 102 -90 5 0 8 29 8 65 0 52 4 69 20 85 51
51 110 4 110 -86 0 -66 14 -70 68 -16 56 56 60 80 55 349 -5 283 -5 287 -42
345 -45 71 -125 101 -208 77z"/>
<path d="M6201 7104 c0 -11 3 -14 6 -6 3 7 2 16 -1 19 -3 4 -6 -2 -5 -13z"/>
<path d="M6297 5892 c-78 -57 -77 -52 -77 -377 0 -285 1 -291 24 -342 16 -33
38 -60 63 -77 l38 -26 5 77 c3 43 9 84 13 91 13 19 74 15 97 -8 16 -16 20 -33
20 -86 l0 -66 24 16 c14 9 33 13 43 10 14 -5 15 -4 4 4 -12 8 -10 16 12 41 14
18 31 48 37 69 5 21 10 148 10 297 0 231 -2 264 -19 301 -17 36 -84 104 -103
104 -5 0 -8 -29 -8 -65 0 -75 -20 -105 -68 -105 -46 0 -62 27 -62 103 0 37 -4
67 -8 67 -5 0 -25 -12 -45 -28z"/>
<path d="M4761 6768 c-112 -19 -186 -104 -186 -213 0 -198 218 -304 366 -177
54 46 79 101 79 175 0 140 -119 240 -259 215z"/>
<path d="M4191 3487 c-68 -24 -76 -47 -79 -241 -4 -196 4 -232 60 -266 42 -25
163 -28 213 -4 53 25 60 55 60 265 0 208 -2 216 -72 245 -39 17 -136 17 -182
1z"/>
</g>
</svg>
